<svg xmlns="http://www.w3.org/2000/svg" xmlns:xlink="http://www.w3.org/1999/xlink" width="11" height="12" viewBox="0 0 11 12">
  <defs>
    <clipPath id="clip-Calendar">
      <rect width="11" height="12"/>
    </clipPath>
  </defs>
  <g id="Calendar" clip-path="url(#clip-Calendar)">
    <rect width="11" height="12" fill="#fff"/>
    <path id="calendar-alt-solid" d="M0,10.875A1.125,1.125,0,0,0,1.125,12h8.25A1.125,1.125,0,0,0,10.5,10.875V4.5H0ZM7.5,6.281A.282.282,0,0,1,7.781,6h.937A.282.282,0,0,1,9,6.281v.938a.282.282,0,0,1-.281.281H7.781A.282.282,0,0,1,7.5,7.219Zm0,3A.282.282,0,0,1,7.781,9h.937A.282.282,0,0,1,9,9.281v.937a.282.282,0,0,1-.281.281H7.781a.282.282,0,0,1-.281-.281Zm-3-3A.282.282,0,0,1,4.781,6h.938A.282.282,0,0,1,6,6.281v.938a.282.282,0,0,1-.281.281H4.781A.282.282,0,0,1,4.5,7.219Zm0,3A.282.282,0,0,1,4.781,9h.938A.282.282,0,0,1,6,9.281v.937a.282.282,0,0,1-.281.281H4.781a.282.282,0,0,1-.281-.281Zm-3-3A.282.282,0,0,1,1.781,6h.938A.282.282,0,0,1,3,6.281v.938a.282.282,0,0,1-.281.281H1.781A.282.282,0,0,1,1.5,7.219Zm0,3A.282.282,0,0,1,1.781,9h.938A.282.282,0,0,1,3,9.281v.937a.282.282,0,0,1-.281.281H1.781a.282.282,0,0,1-.281-.281ZM9.375,1.5H8.25V.375A.376.376,0,0,0,7.875,0h-.75A.376.376,0,0,0,6.75.375V1.5h-3V.375A.376.376,0,0,0,3.375,0h-.75A.376.376,0,0,0,2.25.375V1.5H1.125A1.125,1.125,0,0,0,0,2.625V3.75H10.5V2.625A1.125,1.125,0,0,0,9.375,1.5Z" fill="#005ea2"/>
  </g>
</svg>
