<svg xmlns="http://www.w3.org/2000/svg" xmlns:xlink="http://www.w3.org/1999/xlink" width="11" height="12" viewBox="0 0 11 12">
  <defs>
    <clipPath id="clip-Timer">
      <rect width="11" height="12"/>
    </clipPath>
  </defs>
  <g id="Timer" clip-path="url(#clip-Timer)">
    <rect width="11" height="12" fill="#fff"/>
    <path id="stopwatch-solid" d="M25.542,6.973a4.771,4.771,0,1,1-5.505-4.714V1.468h-.642a.276.276,0,0,1-.275-.275V.275A.276.276,0,0,1,19.395,0h2.753a.276.276,0,0,1,.275.275v.918a.276.276,0,0,1-.275.275h-.642v.791a4.742,4.742,0,0,1,2.287,1.023l.631-.631a.276.276,0,0,1,.39,0l.649.649a.276.276,0,0,1,0,.39l-.674.674-.014.014A4.723,4.723,0,0,1,25.542,6.973ZM21.505,7.8V4.324a.276.276,0,0,0-.275-.275h-.918a.276.276,0,0,0-.275.275V7.8a.276.276,0,0,0,.275.275h.918A.276.276,0,0,0,21.505,7.8Z" transform="translate(-16 0.256)" fill="#005ea2"/>
  </g>
</svg>
