<svg xmlns="http://www.w3.org/2000/svg" width="26.161" height="21.438" viewBox="0 0 26.161 21.438">
  <g id="book" transform="translate(0 -2)">
    <path id="Path_14" data-name="Path 14" d="M5.255,2.3c2.615-.523,6.053-.592,8.4,1.756a.818.818,0,0,1,.239.578V22.62a.818.818,0,0,1-1.4.578c-1.379-1.38-3.458-1.732-5.674-1.5a17.553,17.553,0,0,0-5.644,1.656A.818.818,0,0,1,0,22.62V4.634A.818.818,0,0,1,.451,3.9l.366.731L.451,3.9h0l.007,0,.021-.009Q.66,3.8.842,3.72A21.187,21.187,0,0,1,5.257,2.3ZM1.635,5.158v16.2A18.929,18.929,0,0,1,6.661,20.07a9.489,9.489,0,0,1,5.6.916V4.99C10.525,3.472,7.961,3.427,5.575,3.9a19.552,19.552,0,0,0-3.94,1.253Z" transform="translate(0 0)" fill="#2e6276" fill-rule="evenodd"/>
    <path id="Path_15" data-name="Path 15" d="M25.518,2.3c-2.612-.523-6.053-.592-8.4,1.756a.818.818,0,0,0-.238.578V22.62a.818.818,0,0,0,1.4.578c1.379-1.38,3.458-1.732,5.674-1.5a17.553,17.553,0,0,1,5.644,1.656.818.818,0,0,0,1.184-.73V4.634a.818.818,0,0,0-.451-.731l-.366.731.366-.731h0l-.007,0-.021-.009-.077-.038q-.644-.3-1.307-.556a21.191,21.191,0,0,0-3.389-1Zm3.62,2.858v16.2a18.929,18.929,0,0,0-5.026-1.288,9.489,9.489,0,0,0-5.6.916V4.99c1.738-1.519,4.3-1.563,6.688-1.086a19.549,19.549,0,0,1,3.94,1.253Z" transform="translate(-4.612 0)" fill="#2e6276" fill-rule="evenodd"/>
  </g>
</svg>
