<svg xmlns="http://www.w3.org/2000/svg" width="31.5" height="29.25" viewBox="0 0 31.5 29.25"><defs><style>.a{fill:#fff;}</style></defs><g transform="translate(-2.25 -4.5)"><path class="a" d="M21.375,27H29.25v2.25H21.375Z"/><path class="a" d="M21.375,22.5H29.25v2.25H21.375Z"/><path class="a" d="M21.375,18H29.25v2.25H21.375Z"/><path class="a" d="M6.75,27h7.875v2.25H6.75Z"/><path class="a" d="M6.75,22.5h7.875v2.25H6.75Z"/><path class="a" d="M31.5,4.5H19.125a2.252,2.252,0,0,0-2.25,2.25V13.5H4.5a2.252,2.252,0,0,0-2.25,2.25V31.5A2.252,2.252,0,0,0,4.5,33.75h27a2.252,2.252,0,0,0,2.25-2.25V6.75A2.252,2.252,0,0,0,31.5,4.5Zm-14.625,27H4.5V15.75H16.875Zm2.25,0V6.75H31.5V31.5Z"/></g></svg>