<svg xmlns="http://www.w3.org/2000/svg" width="31.5" height="31.5" viewBox="0 0 31.5 31.5">
  <g id="forum" transform="translate(-2.25 -2.25)">
    <path id="Path_24" data-name="Path 24" d="M31.5,6.75H9A2.126,2.126,0,0,0,6.75,9V24.75A2.126,2.126,0,0,0,9,27h9V24.75H9V9H31.5V24.75H23.4L18,32.4l1.8,1.35L24.525,27H31.5a2.126,2.126,0,0,0,2.25-2.25V9A2.126,2.126,0,0,0,31.5,6.75Z" fill="#0e93b4"/>
    <path id="Path_25" data-name="Path 25" d="M4.5,20.25H2.25V5.625A3.315,3.315,0,0,1,5.625,2.25H20.25V4.5H5.625A1.063,1.063,0,0,0,4.5,5.625Z" fill="#0e93b4"/>
  </g>
</svg>
