<svg id="Layer_1" data-name="Layer 1" xmlns="http://www.w3.org/2000/svg" width="28.11" height="39.08" viewBox="0 0 28.11 39.08"><path d="M9.54,32.3h14v3h-14Z" transform="translate(-2.54 -2.21)" fill="#0e93b4"/><path d="M12.54,38.3h8v3h-8Z" transform="translate(-2.54 -2.21)" fill="#0e93b4"/><path d="M16.6,2.21a14,14,0,0,0-14,14.05h0A12.87,12.87,0,0,0,7.42,27c1.4,1.3,2.16,2.05,2.16,3.34h2.81c0-2.59-1.56-4-3.08-5.42a10.11,10.11,0,0,1-3.94-8.62,11.23,11.23,0,1,1,22.46,0,10.12,10.12,0,0,1-3.95,8.62c-1.5,1.4-3.07,2.81-3.07,5.42h2.81c0-1.29.75-2,2.16-3.36a12.89,12.89,0,0,0,4.86-10.68,14,14,0,0,0-14-14Z" transform="translate(-2.54 -2.21)" fill="#0e93b4"/></svg>