<svg xmlns="http://www.w3.org/2000/svg" width="26.104" height="26.077" viewBox="0 0 26.104 26.077">
  <path id="network-2" d="M16.216,16.219h4.789a3.725,3.725,0,1,0,0-1.863H16.216V6.906h4.789a3.725,3.725,0,1,0,0-1.863H16.216a1.864,1.864,0,0,0-1.863,1.863v7.45H9.565a3.725,3.725,0,1,0,0,1.863h4.789v7.45a1.864,1.864,0,0,0,1.863,1.863h4.789a3.725,3.725,0,1,0,0-1.863H16.216ZM24.6,13.425a1.863,1.863,0,1,1-1.863,1.863A1.863,1.863,0,0,1,24.6,13.425Zm0-9.313a1.863,1.863,0,1,1-1.863,1.863A1.863,1.863,0,0,1,24.6,4.113ZM5.972,17.151a1.863,1.863,0,1,1,1.863-1.863,1.863,1.863,0,0,1-1.863,1.863ZM24.6,22.738A1.863,1.863,0,1,1,22.735,24.6,1.863,1.863,0,0,1,24.6,22.738Z" transform="translate(-2.233 -2.25)" fill="#0e93b4"/>
</svg>
