<svg xmlns="http://www.w3.org/2000/svg" width="36" height="27" viewBox="0 0 36 27">
  <g id="people" transform="translate(0 -4.5)">
    <path id="Path_4" data-name="Path 4" d="M33.75,31.5A2.2,2.2,0,0,0,36,29.25c0-2.25-2.25-9-11.25-9S13.5,27,13.5,29.25a2.2,2.2,0,0,0,2.25,2.25ZM15.761,29.376v0Zm.039-.126H33.7l.032-.005.018,0a6.929,6.929,0,0,0-1.71-3.87C30.8,23.915,28.616,22.5,24.75,22.5s-6.046,1.417-7.29,2.871a6.909,6.909,0,0,0-1.71,3.87l.049.009Zm17.939.126v0ZM24.75,15.75a4.5,4.5,0,1,0-4.5-4.5A4.5,4.5,0,0,0,24.75,15.75Zm6.75-4.5A6.75,6.75,0,1,1,24.75,4.5a6.75,6.75,0,0,1,6.75,6.75ZM15.606,20.88a13.23,13.23,0,0,0-2.768-.556q-.792-.075-1.588-.074C2.25,20.25,0,27,0,29.25A1.988,1.988,0,0,0,2.25,31.5h9.486a5.035,5.035,0,0,1-.486-2.25A10.322,10.322,0,0,1,13.7,22.716,11.945,11.945,0,0,1,15.606,20.88ZM11.07,22.5c-3.753.045-5.884,1.44-7.11,2.871A6.885,6.885,0,0,0,2.25,29.25H9A12.382,12.382,0,0,1,11.07,22.5ZM3.375,12.375a6.75,6.75,0,1,1,6.75,6.75A6.75,6.75,0,0,1,3.375,12.375Zm6.75-4.5a4.5,4.5,0,1,0,4.5,4.5A4.5,4.5,0,0,0,10.125,7.875Z" fill="#2e6276" fill-rule="evenodd"/>
  </g>
</svg>
