<svg xmlns="http://www.w3.org/2000/svg" width="20.75" height="34.313" viewBox="0 0 20.75 34.313">
  <g id="question" transform="translate(-11.813 -7.875)">
    <path id="Path_23" data-name="Path 23" d="M11.813,17.558h5.046c0-2.985,1.75-5.291,5.2-5.291,2.618,0,5.019,1.312,5.019,4.465,0,2.428-1.431,3.544-3.689,5.241-2.572,1.869-4.609,4.052-4.465,7.6l.027,1.77h5V29.983c0-2.744,1.043-3.544,3.86-5.682,2.328-1.77,4.756-3.734,4.756-7.86,0-5.777-4.878-8.566-10.218-8.566-5.07,0-10.651,2.474-10.529,9.683Zm5.97,21.086a3.6,3.6,0,0,0,3.86,3.544,3.586,3.586,0,1,0,0-7.138,3.594,3.594,0,0,0-3.857,3.593Z" fill="#0e93b4"/>
  </g>
</svg>
