<svg id="Layer_1" data-name="Layer 1" xmlns="http://www.w3.org/2000/svg" width="36" height="36" viewBox="0 0 36 36"><path d="M20.9,36.65A15.75,15.75,0,1,0,5.15,20.9,15.75,15.75,0,0,0,20.9,36.65Zm0,2.25a18,18,0,1,0-18-18A18,18,0,0,0,20.9,38.9Z" transform="translate(-2.9 -2.9)" fill="#0e93b4" fill-rule="evenodd"/><path d="M14.71,16.47h3a2.87,2.87,0,0,1,2.61-3.11h.45c1.54,0,3,.77,3,2.63,0,1.43-.85,2.08-2.18,3.08-1.51,1.1-2.71,2.39-2.62,4.47v1h2.94v-.8c0-1.61.62-2.08,2.28-3.34,1.37-1,2.8-2.2,2.8-4.63,0-3.4-2.88-5-6-5C17.93,10.77,14.64,12.23,14.71,16.47Zm3.52,12.41A2.11,2.11,0,0,0,20.37,31h.13a2.11,2.11,0,0,0,.41-4.2H20.5a2.12,2.12,0,0,0-2.27,2v.15Z" transform="translate(-2.9 -2.9)" fill="#0e93b4"/></svg>