<svg xmlns="http://www.w3.org/2000/svg" width="35.95" height="38.542" viewBox="0 0 35.95 38.542">
  <g id="ribbon-outline" transform="translate(-2.25 -1.125)">
    <path id="Path_16" data-name="Path 16" d="M19.369,1.125A11.494,11.494,0,0,1,27.5,20.747,11.494,11.494,0,0,1,11.242,4.492,11.419,11.419,0,0,1,19.369,1.125Zm0,20.739a9.244,9.244,0,1,0-9.244-9.244A9.255,9.255,0,0,0,19.369,21.864Z" transform="translate(0.856)" fill="#0e93b4"/>
    <path id="Path_17" data-name="Path 17" d="M15.04,37.573a1.125,1.125,0,0,1-.966-.549L10.565,31.14a.172.172,0,0,0-.147-.083l-7.037.035a1.125,1.125,0,0,1-.989-1.671L10.14,15.473a1.125,1.125,0,0,1,1.967,1.093L5.292,28.832l5.113-.025A2.43,2.43,0,0,1,12.5,29.987l2.409,4.039L21.172,20.24a1.125,1.125,0,1,1,2.048.931L16.065,36.913a1.125,1.125,0,0,1-.962.658Z" transform="translate(0 2.095)" fill="#0e93b4"/>
    <path id="Path_18" data-name="Path 18" d="M23.185,37.614l-.063,0a1.125,1.125,0,0,1-.962-.658L16.976,25.548a1.125,1.125,0,0,1,2.048-.931l4.3,9.45,2.408-4.038a2.431,2.431,0,0,1,2.092-1.18l5.116.025L25.97,16.3a1.125,1.125,0,0,1,1.968-1.09l7.9,14.258a1.125,1.125,0,0,1-.99,1.67L27.808,31.1a.172.172,0,0,0-.149.083l-3.509,5.883A1.125,1.125,0,0,1,23.185,37.614Z" transform="translate(2.225 2.054)" fill="#0e93b4"/>
    <path id="Path_19" data-name="Path 19" d="M18.685,5.625a6.31,6.31,0,1,1-6.31,6.31A6.317,6.317,0,0,1,18.685,5.625Zm0,10.369a4.06,4.06,0,1,0-4.06-4.06A4.064,4.064,0,0,0,18.685,15.994Z" transform="translate(1.54 0.685)" fill="#0e93b4"/>
  </g>
</svg>
