<svg id="Layer_1" data-name="Layer 1" xmlns="http://www.w3.org/2000/svg" viewBox="0 0 358.51 386.44"><defs><style>.cls-1{fill:#fff;}.cls-2{fill:#00c0e8;}.cls-3{fill:#044381;}.cls-4,.cls-5{fill:none;stroke-miterlimit:10;}.cls-4{stroke:#00c0e8;stroke-width:15px;}.cls-5{stroke:#044381;stroke-width:15.25px;}</style></defs><g id="surface1"><path class="cls-1" d="M336.76,236.83a110.24,110.24,0,0,0-14.62-1c-57.83,0-104.74,46-104.74,102.7a101,101,0,0,0,12.65,49l-.17.08H120.62c-20,0-36.15-15.87-36.15-35.44V106.35c0-19.57,16.19-35.44,36.15-35.44h132.6v58.64c0,15.14,12.48,27.38,27.93,27.38h55.61Z" transform="translate(-76.59 -62.78)"/><path class="cls-2" d="M253.22,70.91l83.54,86H281.15c-15.45,0-27.93-12.24-27.93-27.38Z" transform="translate(-76.59 -62.78)"/><path class="cls-3" d="M345.22,230.07V156.93a8.35,8.35,0,0,0-2.38-5.55l-83.63-86.1a8.41,8.41,0,0,0-6-2.5H120.62a43.74,43.74,0,0,0-44,43.57V352.17c0,24,19.55,43.25,44,43.25H225.28c20.38,33.83,57,53.8,96.86,53.8,62.27,0,113-49.61,113-110.74a109.15,109.15,0,0,0-27.85-73A113.86,113.86,0,0,0,345.22,230.07Zm-83.79-139L317.54,149H281.15a19.65,19.65,0,0,1-19.72-19.41V91.05ZM93,352.17V106.35a27.47,27.47,0,0,1,27.6-27.46H245v50.66c0,19.57,16.18,35.52,36.15,35.52H328.8V228c-2.47-.08-4.44-.4-6.58-.4a116,116,0,0,0-74.92,27.7H143a8.06,8.06,0,1,0,0,16.11H232a128,128,0,0,0-14.46,25H143a8.06,8.06,0,1,0,0,16.11h69.25a106.61,106.61,0,0,0-3.12,25.94,108.39,108.39,0,0,0,8,40.91H120.62A27.25,27.25,0,0,1,93,352.17Zm229.12,81c-35.41,0-68-19-84.94-49.53a92.94,92.94,0,0,1-11.67-45.1c0-52.2,43.29-94.64,96.53-94.64a105.93,105.93,0,0,1,13.47.89,97.15,97.15,0,0,1,59.15,31.33,93.36,93.36,0,0,1,23.9,62.42C418.67,390.75,375.37,433.19,322.14,433.19Z" transform="translate(-76.59 -62.78)"/><path class="cls-2" d="M145.48,231.11H254.15c5.91,0,10.73-3.62,10.73-8.05S260.06,215,254.15,215H145.48c-5.9,0-10.73,3.63-10.73,8.06S139.58,231.11,145.48,231.11Z" transform="translate(-76.59 -62.78)"/></g><g id="Icon_feather-eye" data-name="Icon feather-eye"><path id="Path_1320" data-name="Path 1320" class="cls-4" d="M274,334.8s19.92-39.05,54.78-39.05,54.77,39.05,54.77,39.05-19.92,39.06-54.77,39.06S274,334.8,274,334.8Z" transform="translate(-76.59 -62.78)"/><path id="Path_1321" data-name="Path 1321" class="cls-5" d="M343.73,334.8a14.94,14.94,0,1,1-14.93-14.64A14.79,14.79,0,0,1,343.73,334.8Z" transform="translate(-76.59 -62.78)"/></g></svg>