<svg xmlns="http://www.w3.org/2000/svg" width="50.521" height="50.467" viewBox="0 0 50.521 50.467">
  <g id="Group_2045" data-name="Group 2045" transform="translate(22742.26 19252.512)">
    <path id="Path_1080" data-name="Path 1080" d="M45.094,32.982a5.436,5.436,0,0,0-5.22,3.947H34.635V31.151h5.349A10.538,10.538,0,0,0,43.045,10.53,12.045,12.045,0,0,0,31.377,1.414a11.916,11.916,0,0,0-6.032,1.615A10.542,10.542,0,0,0,7.707,10.463a10.538,10.538,0,0,0,2.83,20.688h5.349v5.778H10.647a5.427,5.427,0,1,0,0,2.96h6.719a1.48,1.48,0,0,0,1.48-1.48V31.151H23.78V40.1a5.427,5.427,0,1,0,2.96,0V31.151h4.934v7.258a1.48,1.48,0,0,0,1.48,1.48h6.719a5.427,5.427,0,1,0,5.22-6.907ZM5.427,40.876a2.467,2.467,0,1,1,2.467-2.467A2.47,2.47,0,0,1,5.427,40.876Zm22.3,4.44a2.467,2.467,0,1,1-2.467-2.467A2.47,2.47,0,0,1,27.727,45.316ZM10.537,28.191a7.577,7.577,0,0,1-1.1-15.074,1.48,1.48,0,0,0,1.26-1.6c-.021-.231-.032-.467-.032-.7A7.579,7.579,0,0,1,24.005,5.9a1.48,1.48,0,0,0,2.008.232,8.956,8.956,0,0,1,5.364-1.754,9.083,9.083,0,0,1,8.946,7.6,1.48,1.48,0,0,0,1.167,1.213,7.577,7.577,0,0,1-1.506,15H10.537ZM45.094,40.876a2.467,2.467,0,1,1,2.467-2.467A2.47,2.47,0,0,1,45.094,40.876Z" transform="translate(-22742.26 -19252.789)" fill="#fff"/>
  </g>
</svg>
