<svg xmlns="http://www.w3.org/2000/svg" width="48.426" height="50.924" viewBox="0 0 48.426 50.924">
  <g id="Group_2047" data-name="Group 2047" transform="translate(22223.717 19252.469)">
    <path id="Path_1081" data-name="Path 1081" d="M11.318,51.075a.832.832,0,0,0,.832.832H32.945a.832.832,0,0,0,.832-.832V47.748h9.981a.832.832,0,0,0,.832-.832V36.935H49.58a.832.832,0,0,0,.813-1.006l-2.477-11.56A22.459,22.459,0,1,0,7.136,37.44,23.352,23.352,0,0,1,11.318,51.075ZM4.771,22.319a20.8,20.8,0,0,1,41.482,2.139.838.838,0,0,0,.019.174l2.279,10.639H43.758a.832.832,0,0,0-.832.832v9.981H29.618v1.664h2.5v2.5H12.97A24.868,24.868,0,0,0,8.492,36.476,20.852,20.852,0,0,1,4.771,22.319Z" transform="translate(-22226.207 -19253.951)" fill="#fff" stroke="#fff" stroke-width="1"/>
    <path id="Path_1082" data-name="Path 1082" d="M32.492,27.91l-.618-1.477a7.558,7.558,0,0,0,.352-.852l1.484-.609a.833.833,0,0,0,.509-.665,8.388,8.388,0,0,0,0-2.317.833.833,0,0,0-.509-.665l-1.484-.609a7.617,7.617,0,0,0-.351-.852l.617-1.477a.832.832,0,0,0-.11-.83,9.183,9.183,0,0,0-1.64-1.641.832.832,0,0,0-.83-.11l-1.478.618a7.6,7.6,0,0,0-.851-.351l-.609-1.484a.831.831,0,0,0-.664-.51,8.209,8.209,0,0,0-2.318,0,.831.831,0,0,0-.664.51l-.609,1.484a7.6,7.6,0,0,0-.851.351l-1.478-.618a.831.831,0,0,0-.83.11,9.219,9.219,0,0,0-1.64,1.64.833.833,0,0,0-.11.831l.618,1.477a7.6,7.6,0,0,0-.352.852l-1.484.609a.833.833,0,0,0-.509.665,8.389,8.389,0,0,0,0,2.317.833.833,0,0,0,.509.665l1.484.609a7.617,7.617,0,0,0,.351.852l-.617,1.477a.832.832,0,0,0,.11.83,9.183,9.183,0,0,0,1.64,1.641.833.833,0,0,0,.83.11l1.478-.618a7.6,7.6,0,0,0,.851.351l.609,1.484a.831.831,0,0,0,.664.51,8.395,8.395,0,0,0,2.318,0,.831.831,0,0,0,.664-.51l.609-1.484a7.475,7.475,0,0,0,.851-.351l1.478.618a.833.833,0,0,0,.83-.11,9.183,9.183,0,0,0,1.64-1.641.832.832,0,0,0,.11-.83Zm-1.26-3.72a.83.83,0,0,0-.484.543,5.811,5.811,0,0,1-.517,1.253.835.835,0,0,0-.042.728l.575,1.374a7.585,7.585,0,0,1-.673.674l-1.374-.575a.832.832,0,0,0-.728.042,5.8,5.8,0,0,1-1.253.517.829.829,0,0,0-.543.485l-.569,1.385a6.144,6.144,0,0,1-.947,0l-.569-1.385a.829.829,0,0,0-.543-.485,5.85,5.85,0,0,1-1.254-.517.835.835,0,0,0-.727-.042l-1.374.575a7.64,7.64,0,0,1-.673-.674l.574-1.374a.835.835,0,0,0-.041-.727,5.782,5.782,0,0,1-.517-1.255.83.83,0,0,0-.484-.543l-1.385-.568c-.013-.167-.019-.322-.019-.473s.006-.307.019-.473l1.385-.568a.83.83,0,0,0,.484-.543,5.811,5.811,0,0,1,.517-1.253.835.835,0,0,0,.042-.728l-.575-1.374a7.637,7.637,0,0,1,.673-.673l1.374.575a.835.835,0,0,0,.727-.042,5.85,5.85,0,0,1,1.254-.517.829.829,0,0,0,.543-.485l.569-1.385a6.144,6.144,0,0,1,.947,0l.569,1.385a.829.829,0,0,0,.543.485,5.85,5.85,0,0,1,1.254.517.834.834,0,0,0,.727.042l1.374-.575a7.64,7.64,0,0,1,.673.674l-.574,1.374a.835.835,0,0,0,.041.727,5.782,5.782,0,0,1,.517,1.255.83.83,0,0,0,.484.543l1.385.568c.013.167.019.322.019.473s-.006.307-.019.473Z" transform="translate(-22228.393 -19255.971)" fill="#fff" stroke="#fff" stroke-width="1"/>
    <path id="Path_1083" data-name="Path 1083" d="M26.159,20a4.159,4.159,0,1,0,4.159,4.159A4.164,4.164,0,0,0,26.159,20Zm0,6.654a2.5,2.5,0,1,1,2.5-2.5A2.5,2.5,0,0,1,26.159,26.654Z" transform="translate(-22229.402 -19256.979)" fill="#fff" stroke="#fff" stroke-width="1"/>
    <path id="Path_1084" data-name="Path 1084" d="M35.3,35.842l.988,1.339a13.378,13.378,0,0,0,2.543-2.456l-1.3-1.034A11.731,11.731,0,0,1,35.3,35.842Z" transform="translate(-22231.641 -19259.283)" fill="#fff" stroke="#fff" stroke-width="1"/>
    <path id="Path_1085" data-name="Path 1085" d="M12.456,27.911l1.48-.759A11.649,11.649,0,0,1,24.309,10.208h6.31l-1.075,1.075,1.176,1.176,2.5-2.5a.831.831,0,0,0,0-1.176l-2.5-2.5L29.543,7.469l1.075,1.075h-6.31A13.3,13.3,0,0,0,12.456,27.911Z" transform="translate(-22227.553 -19254.674)" fill="#fff" stroke="#fff" stroke-width="1"/>
    <path id="Path_1086" data-name="Path 1086" d="M41.855,29.177l-1.6-.443a11.575,11.575,0,0,1-1.215,2.846l1.428.852A13.2,13.2,0,0,0,41.855,29.177Z" transform="translate(-22232.268 -19258.449)" fill="#fff" stroke="#fff" stroke-width="1"/>
    <path id="Path_1087" data-name="Path 1087" d="M15.213,32.97l-1.368.948a13.372,13.372,0,0,0,2.382,2.614L17.3,35.258A11.656,11.656,0,0,1,15.213,32.97Z" transform="translate(-22228.031 -19259.162)" fill="#fff" stroke="#fff" stroke-width="1"/>
    <path id="Path_1088" data-name="Path 1088" d="M30.256,38.394l.385,1.618a13.217,13.217,0,0,0,3.3-1.273l-.8-1.458A11.563,11.563,0,0,1,30.256,38.394Z" transform="translate(-22230.791 -19259.887)" fill="#fff" stroke="#fff" stroke-width="1"/>
    <path id="Path_1089" data-name="Path 1089" d="M18.429,38.228a13.248,13.248,0,0,0,3.213,1.484l.489-1.59a11.555,11.555,0,0,1-2.809-1.3Z" transform="translate(-22228.803 -19259.811)" fill="#fff" stroke="#fff" stroke-width="1"/>
    <path id="Path_1090" data-name="Path 1090" d="M27.9,40.565l-.167-1.655a11.68,11.68,0,0,1-1.168.059,9.217,9.217,0,0,1-1.927-.157l-.271,1.641a15.044,15.044,0,0,0,2.2.18C27.013,40.632,27.461,40.609,27.9,40.565Z" transform="translate(-22229.801 -19260.145)" fill="#fff" stroke="#fff" stroke-width="1"/>
    <path id="Path_1091" data-name="Path 1091" d="M23,55h1.664v1.664H23Z" transform="translate(-22229.57 -19262.867)" fill="#fff" stroke="#fff" stroke-width="1"/>
    <path id="Path_1092" data-name="Path 1092" d="M27,55h1.664v1.664H27Z" transform="translate(-22230.244 -19262.867)" fill="#fff" stroke="#fff" stroke-width="1"/>
    <path id="Path_1093" data-name="Path 1093" d="M31,55h1.664v1.664H31Z" transform="translate(-22230.916 -19262.867)" fill="#fff" stroke="#fff" stroke-width="1"/>
  </g>
</svg>
