<svg xmlns="http://www.w3.org/2000/svg" width="33.75" height="31.5" viewBox="0 0 33.75 31.5"><defs><style>.a{fill:#fff;}</style></defs><g transform="translate(-1.125 -2.25)"><path class="a" d="M34.875,33.75h-2.25V30.375A3.375,3.375,0,0,0,29.25,27h-4.5a3.375,3.375,0,0,0-3.375,3.375V33.75h-2.25V30.375A5.625,5.625,0,0,1,24.75,24.75h4.5a5.625,5.625,0,0,1,5.625,5.625Z"/><path class="a" d="M27,13.5a3.375,3.375,0,1,1-3.375,3.375A3.375,3.375,0,0,1,27,13.5m0-2.25a5.625,5.625,0,1,0,5.625,5.625A5.625,5.625,0,0,0,27,11.25Z"/><path class="a" d="M16.875,24.75h-2.25V21.375A3.375,3.375,0,0,0,11.25,18H6.75a3.375,3.375,0,0,0-3.375,3.375V24.75H1.125V21.375A5.625,5.625,0,0,1,6.75,15.75h4.5a5.625,5.625,0,0,1,5.625,5.625Z"/><path class="a" d="M9,4.5A3.375,3.375,0,1,1,5.625,7.875,3.375,3.375,0,0,1,9,4.5M9,2.25a5.625,5.625,0,1,0,5.625,5.625A5.625,5.625,0,0,0,9,2.25Z"/></g></svg>