<?xml version="1.0" encoding="UTF-8"?><svg id="Layer_1" xmlns="http://www.w3.org/2000/svg" viewBox="0 0 46.91 45.9"><defs><style>.cls-1{fill:none;stroke:#fff;stroke-linecap:round;stroke-linejoin:round;stroke-width:1.5px;}.cls-2{fill:#00bde3;}</style></defs><g><g><polygon class="cls-1" points="46.16 22.17 37.59 2.12 29.02 22.17 46.16 22.17"/><path class="cls-1" d="M37.59,27.85c3.85,0,7.16-2.34,8.57-5.68H29.02c1.41,3.34,4.72,5.68,8.57,5.68Z"/></g><g><polygon class="cls-1" points="17.89 29.82 9.32 9.77 .75 29.82 17.89 29.82"/><path class="cls-1" d="M9.32,35.5c3.85,0,7.16-2.34,8.57-5.68H.75c1.41,3.34,4.72,5.68,8.57,5.68Z"/></g></g><line class="cls-1" x1="42.56" y1=".75" x2="4.34" y2="11.12"/><g><g><line class="cls-1" x1="11.17" y1="45.15" x2="35.73" y2="45.15"/><line class="cls-1" x1="14.1" y1="41.49" x2="32.81" y2="41.49"/></g><g><line class="cls-1" x1="23.45" y1="5.93" x2="23.45" y2="40.85"/><g><path class="cls-2" d="M20.74,5.93c0,1.5,1.21,2.71,2.71,2.71s2.71-1.21,2.71-2.71-1.21-2.71-2.71-2.71-2.71,1.21-2.71,2.71Z"/><path class="cls-1" d="M20.74,5.93c0,1.5,1.21,2.71,2.71,2.71s2.71-1.21,2.71-2.71-1.21-2.71-2.71-2.71-2.71,1.21-2.71,2.71Z"/></g></g></g></svg>