<svg xmlns="http://www.w3.org/2000/svg" width="53.539" height="53.623" viewBox="0 0 53.539 53.623">
  <g id="dimension" transform="translate(0.5 0.5)">
    <g id="Group_2134" data-name="Group 2134" transform="translate(0 0)">
      <path id="Path_1195" data-name="Path 1195" d="M52.539,7.881V.876A.875.875,0,0,0,51.664,0H44.658V1.751H49.55L28.68,22.621a4.348,4.348,0,0,0-1.535-.641V2.99L30.9,6.749,32.143,5.51,26.889.257a.875.875,0,0,0-1.238,0h0L20.4,5.51l1.238,1.238L25.394,2.99V21.98a4.35,4.35,0,0,0-1.535.641L2.99,1.751H7.881V0H.876A.875.875,0,0,0,0,.875H0V7.881H1.751V2.99L22.621,23.859a4.348,4.348,0,0,0-.641,1.535H2.99l3.759-3.759L5.51,20.4.257,25.65a.875.875,0,0,0,0,1.238h0L5.51,32.143,6.749,30.9,2.99,27.145H21.98a4.349,4.349,0,0,0,.641,1.535L1.751,49.55V44.658H0v7.005a.875.875,0,0,0,.875.876H7.881V50.788H2.99L23.859,29.918a4.348,4.348,0,0,0,1.535.641v18.99L21.635,45.79,20.4,47.029l5.254,5.254a.875.875,0,0,0,1.238,0h0l5.254-5.254L30.9,45.79,27.145,49.55V30.559a4.349,4.349,0,0,0,1.535-.641L49.55,50.788H44.658v1.751h7.005a.875.875,0,0,0,.876-.875h0V44.658H50.788V49.55L29.918,28.68a4.348,4.348,0,0,0,.641-1.535h18.99L45.79,30.9l1.238,1.238,5.254-5.254a.875.875,0,0,0,0-1.238h0L47.029,20.4,45.79,21.635l3.759,3.759H30.559a4.349,4.349,0,0,0-.641-1.535L50.788,2.99V7.881ZM26.27,28.9A2.627,2.627,0,1,1,28.9,26.27,2.627,2.627,0,0,1,26.27,28.9Z" transform="translate(0 0)" fill="#9f5012" stroke="#9f5012" stroke-width="1"/>
    </g>
  </g>
</svg>
