<svg xmlns="http://www.w3.org/2000/svg" width="52.824" height="51.793" viewBox="0 0 52.824 51.793">
  <g id="Group_2046" data-name="Group 2046" transform="translate(22490.906 19253.338)">
    <path id="Path_1094" data-name="Path 1094" d="M86.771,146.06a2.337,2.337,0,0,0-2.66,1.535l-2.661-1.162c.005-.182.008-.362.008-.536a18.589,18.589,0,0,0-.582-4.624l1.194-.81a2.659,2.659,0,0,0,4.232-2.971l-.562-1.508a2.675,2.675,0,0,0-3.336-1.641,2.665,2.665,0,0,0-1.833,2.524l-1.354.189c-.186-.34-.388-.685-.6-1.028a.76.76,0,0,0-1.286.811c.256.405.49.811.7,1.207a1.062,1.062,0,0,0,1.086.56l2.442-.341a.76.76,0,0,0,.61-1.009,1.139,1.139,0,0,1,.718-1.468,1.174,1.174,0,0,1,1.438.728l.562,1.508a1.18,1.18,0,0,1-.594,1.488,1.144,1.144,0,0,1-1.43-.452.76.76,0,0,0-1.077-.235L79.75,140.2a1.059,1.059,0,0,0-.426,1.159,17.049,17.049,0,0,1,.613,4.538c0,.252-.006.516-.019.783a1.065,1.065,0,0,0,.634,1.02l3.8,1.659a.76.76,0,0,0,1.05-.55l.12-.613a.816.816,0,0,1,1.6.314l-.623,3.174a.816.816,0,0,1-1,.635.848.848,0,0,1-.6-.992l.017-.085a.76.76,0,0,0-.781-.906l-4.108.187a1.066,1.066,0,0,0-.957.726,16.957,16.957,0,0,1-1.5,3.3,1.061,1.061,0,0,0,.1,1.222l1.817,2.159a.76.76,0,0,0,1.105.061,1.137,1.137,0,0,1,1.685,1.515l-.527.688a1.175,1.175,0,0,1-1.575.284,1.144,1.144,0,0,1-.433-1.3.76.76,0,0,0-.415-.939l-2.618-1.15a1.059,1.059,0,0,0-1.21.258,17.068,17.068,0,0,1-4.007,3.246,1.066,1.066,0,0,0-.512,1.086l.67,4.087a.76.76,0,0,0,1.033.583l.58-.232a.816.816,0,0,1,1.075.492.848.848,0,0,1-.51,1.039l-2.962,1.185a.816.816,0,0,1-1.075-.492.848.848,0,0,1,.509-1.039l.08-.032a.76.76,0,0,0,.336-1.147l-2.389-3.348a1.066,1.066,0,0,0-1.129-.409,17.11,17.11,0,0,1-7.695.2,1.067,1.067,0,0,0-1.106.468l-2.392,3.751a.76.76,0,0,0,.381,1.123l.085.031a1.157,1.157,0,0,1,.691,1.484.758.758,0,0,0-.046.26.592.592,0,0,1-.9.627l-2.938-1.071a1.163,1.163,0,0,1-.7-1.462,1.121,1.121,0,0,1,.588-.646,1.237,1.237,0,0,1,.95-.048l.067.025a.76.76,0,0,0,1.016-.63l.487-4.4a1.066,1.066,0,0,0-.568-1.058,17.018,17.018,0,0,1-4.726-3.608,1.063,1.063,0,0,0-1.181-.264l-3.585,1.47a.76.76,0,0,0-.382,1.061.924.924,0,0,1-.31,1.213.96.96,0,0,1-1.3-.286l-.918-1.322a.954.954,0,0,1,.16-1.3.928.928,0,0,1,1.317.168.76.76,0,0,0,1.176.045l2.525-2.854a1.062,1.062,0,0,0,.132-1.216,17.017,17.017,0,0,1-.751-1.533.76.76,0,0,0-1.4.6c.2.472.425.937.663,1.384l-1.809,2.045a2.454,2.454,0,0,0-2.8.167,2.476,2.476,0,0,0-.467,3.357l.918,1.322a2.489,2.489,0,0,0,3.384.689,2.437,2.437,0,0,0,1.081-2.4l2.643-1.084a18.528,18.528,0,0,0,4.647,3.547l-.362,3.265a2.767,2.767,0,0,0-1.268.267,2.629,2.629,0,0,0-1.371,1.525,2.691,2.691,0,0,0,1.615,3.385l2.938,1.071a2.561,2.561,0,0,0,.876.161,2.029,2.029,0,0,0,1.174-.358,2.18,2.18,0,0,0,.884-1.725,2.682,2.682,0,0,0-.908-2.9l1.785-2.8a18.7,18.7,0,0,0,7.762-.2l1.735,2.43a2.331,2.331,0,0,0,2.423,3.9l2.962-1.185a2.356,2.356,0,0,0,1.382-2.948,2.318,2.318,0,0,0-1.237-1.362,2.348,2.348,0,0,0-1.535-.142l-.47-2.864a18.579,18.579,0,0,0,3.867-3.13l1.769.777a2.657,2.657,0,0,0,4.791,1.73l.527-.688a2.658,2.658,0,0,0-3.277-4l-1.166-1.386a18.5,18.5,0,0,0,1.37-3.013l2.981-.136a2.331,2.331,0,0,0,4.591.085l.623-3.174A2.339,2.339,0,0,0,86.771,146.06Z" transform="translate(-22527.275 -19373.941)" fill="#fff" stroke="#fff" stroke-width="1"/>
    <path id="Path_1095" data-name="Path 1095" d="M4.9,31.932l2.849.658c.062.4.139.8.229,1.2a.76.76,0,0,0,1.483-.333c-.1-.467-.19-.934-.253-1.389a1.065,1.065,0,0,0-.81-.888l-4.035-.932a.76.76,0,0,0-.931.734l0,.472a.971.971,0,0,1-.968.959.937.937,0,0,1-.937-.945l.026-2.932a1.022,1.022,0,0,1,.313-.722.913.913,0,0,1,.665-.267.957.957,0,0,1,.926.957.76.76,0,0,0,.934.744l4.007-.94A1.065,1.065,0,0,0,9.2,27.42a16.834,16.834,0,0,1,2.114-6.2,1.062,1.062,0,0,0-.11-1.216L9.293,17.764a.76.76,0,0,0-1.185.034l-.166.219a.743.743,0,0,1-1.069.121.773.773,0,0,1-.09-1.051L8.056,15.4a.742.742,0,0,1,1.219.845.76.76,0,0,0,.34,1.106l2.672,1.156a1.06,1.06,0,0,0,1.2-.259,17.056,17.056,0,0,1,4.191-3.345,1.066,1.066,0,0,0,.526-1.079l-.616-4.1a.76.76,0,0,0-1.025-.6l-.583.224a.816.816,0,0,1-1.068-.507.848.848,0,0,1,.524-1.032l2.977-1.145a.816.816,0,0,1,1.068.507.848.848,0,0,1-.524,1.032l-.08.031a.76.76,0,0,0-.351,1.143l2.344,3.379A1.066,1.066,0,0,0,22,13.191a17.094,17.094,0,0,1,4.063-.488h0a1.063,1.063,0,0,0,1-.7l.776-2.172a.76.76,0,0,0-.489-.981,1.231,1.231,0,0,1-.855-1.32,1.2,1.2,0,0,1,.463-.8,1.309,1.309,0,0,1,.963-.27l1.066.134A1.265,1.265,0,0,1,30.1,7.952a1.224,1.224,0,0,1-.914,1.059.76.76,0,0,0-.563.822l.27,2.353a1.06,1.06,0,0,0,.826.914,16.886,16.886,0,0,1,4.835,1.879,1.065,1.065,0,0,0,1.2-.093l3.216-2.61a.76.76,0,0,0-.006-1.186l-.489-.388a.816.816,0,0,1-.106-1.177.848.848,0,0,1,1.155-.073l2.5,1.984a.816.816,0,0,1,.106,1.177.848.848,0,0,1-1.155.073l-.067-.054a.76.76,0,0,0-1.163.277l-1.722,3.739a1.066,1.066,0,0,0,.205,1.183c.108.111.215.225.342.363a.76.76,0,1,0,1.119-1.03L39.535,17l1.251-2.716a2.331,2.331,0,0,0,2.184-4.039l-2.5-1.983a2.355,2.355,0,0,0-3.245.263,2.317,2.317,0,0,0-.568,1.75,2.348,2.348,0,0,0,.639,1.4l-2.253,1.829a18.4,18.4,0,0,0-4.673-1.817L30.2,10.231a2.752,2.752,0,0,0-1.031-5.149l-1.066-.134a2.842,2.842,0,0,0-2.089.581,2.706,2.706,0,0,0-1.036,1.82,2.753,2.753,0,0,0,1.194,2.606l-.44,1.232a18.617,18.617,0,0,0-3.793.456l-1.7-2.452a2.331,2.331,0,0,0-2.37-3.933L14.894,6.4a2.355,2.355,0,0,0-1.421,2.929,2.317,2.317,0,0,0,1.219,1.378,2.348,2.348,0,0,0,1.533.162l.431,2.87a18.564,18.564,0,0,0-4.066,3.243l-1.716-.742a2.276,2.276,0,0,0-.861-2.2,2.263,2.263,0,0,0-3.17.44L5.571,16.17A2.281,2.281,0,0,0,5.9,19.306a2.244,2.244,0,0,0,1.708.511A2.271,2.271,0,0,0,8.685,19.4l1.151,1.353a18.331,18.331,0,0,0-2.1,6.154l-2.941.69a2.488,2.488,0,0,0-2.231-1.563A2.429,2.429,0,0,0,.8,26.721a2.553,2.553,0,0,0-.778,1.8L0,31.455a2.457,2.457,0,0,0,2.457,2.479,2.5,2.5,0,0,0,2.44-2Z" transform="translate(-22490.406 -19257.762)" fill="#fff" stroke="#fff" stroke-width="1"/>
    <path id="Path_1096" data-name="Path 1096" d="M150.759,139.994a.76.76,0,1,0-.712-1.343,3.908,3.908,0,0,1-4.923-.606,3.27,3.27,0,0,1-.563-2.75,5.233,5.233,0,0,1,5.049-3.98,3.271,3.271,0,0,1,2.543,1.189,3.675,3.675,0,0,1-.028,4.209.76.76,0,0,0,1.3.8,5.17,5.17,0,0,0-.074-5.945,4.763,4.763,0,0,0-3.694-1.768,6.75,6.75,0,0,0-6.58,5.187,4.764,4.764,0,0,0,.857,4,4.848,4.848,0,0,0,3.871,1.763A6.337,6.337,0,0,0,150.759,139.994Z" transform="translate(-22618.871 -19369.973)" fill="#fff" stroke="#fff" stroke-width="1"/>
    <path id="Path_1097" data-name="Path 1097" d="M307.516,137.84a3.3,3.3,0,1,0-3.269,2.858A3.088,3.088,0,0,0,307.516,137.84Zm-5.018,0a1.812,1.812,0,1,1,1.749,1.338A1.587,1.587,0,0,1,302.5,137.84Z" transform="translate(-22760.879 -19374.637)" fill="#fff" stroke="#fff" stroke-width="1"/>
    <path id="Path_1098" data-name="Path 1098" d="M216.341,261.026a3.5,3.5,0,1,0-3.5,3.5A3.507,3.507,0,0,0,216.341,261.026Zm-5.485,0a1.982,1.982,0,1,1,1.982,1.982A1.985,1.985,0,0,1,210.856,261.026Z" transform="translate(-22678.525 -19484.758)" fill="#fff" stroke="#fff" stroke-width="1"/>
    <path id="Path_1099" data-name="Path 1099" d="M327.928,253.834a2.724,2.724,0,1,0-2.724,2.724A2.727,2.727,0,0,0,327.928,253.834Zm-3.927,0a1.2,1.2,0,1,1,1.2,1.2A1.2,1.2,0,0,1,324,253.834Z" transform="translate(-22780.203 -19478.994)" fill="#fff" stroke="#fff" stroke-width="1"/>
    <path id="Path_1100" data-name="Path 1100" d="M254.134,351.535a2.669,2.669,0,1,0-2.669-2.669A2.672,2.672,0,0,0,254.134,351.535Zm0-3.818a1.149,1.149,0,1,1-1.149,1.149A1.15,1.15,0,0,1,254.134,347.717Z" transform="translate(-22716.385 -19564.443)" fill="#fff" stroke="#fff" stroke-width="1"/>
    <path id="Path_1101" data-name="Path 1101" d="M135.567,305.852a2.749,2.749,0,1,0-2.749-2.749A2.752,2.752,0,0,0,135.567,305.852Zm0-3.977a1.229,1.229,0,1,1-1.229,1.229A1.23,1.23,0,0,1,135.567,301.874Z" transform="translate(-22609.764 -19523.246)" fill="#fff" stroke="#fff" stroke-width="1"/>
    <path id="Path_1102" data-name="Path 1102" d="M293.225,226.873a.76.76,0,0,0-.76-.76h-.672a.76.76,0,0,0,0,1.52h.672A.76.76,0,0,0,293.225,226.873Z" transform="translate(-22751.943 -19456.531)" fill="#fff" stroke="#fff" stroke-width="1"/>
    <path id="Path_1103" data-name="Path 1103" d="M203.285,358.733h.69a.76.76,0,1,0,0-1.52h-.69a.76.76,0,0,0,0,1.52Z" transform="translate(-22672.404 -19574.344)" fill="#fff" stroke="#fff" stroke-width="1"/>
    <path id="Path_1104" data-name="Path 1104" d="M134.243,249.511a.76.76,0,0,0,0-1.52h-.665a.76.76,0,0,0,0,1.52Z" transform="translate(-22609.764 -19476.191)" fill="#fff" stroke="#fff" stroke-width="1"/>
    <path id="Path_1105" data-name="Path 1105" d="M265.141,118.294a.76.76,0,0,0,0-1.52h-.926a.76.76,0,0,0,0,1.52Z" transform="translate(-22727.16 -19358.273)" fill="#fff" stroke="#fff" stroke-width="1"/>
    <path id="Path_1106" data-name="Path 1106" d="M323.239,332.8a.76.76,0,1,0,0,1.52h1.022a.76.76,0,0,0,0-1.52Z" transform="translate(-22780.201 -19552.402)" fill="#fff" stroke="#fff" stroke-width="1"/>
  </g>
</svg>
